HIERARCHY
ROOT Hips
{
	OFFSET 0.000000 0.000000 0.000000
	CHANNELS 6 Xposition Yposition Zposition Xrotation Yrotation Zrotation
	JOINT LeftUpLeg_virtual
	{
		OFFSET 0.000000 0.000000 0.000000
		CHANNELS 3 Xrotation Yrotation Zrotation
		JOINT LeftUpLeg
		{
			OFFSET 15.427100 -6.655098 0.678600
			CHANNELS 3 Xrotation Yrotation Zrotation
			JOINT LeftLeg
			{
				OFFSET 4.081073 -39.591068 13.024000
				CHANNELS 3 Xrotation Yrotation Zrotation
				JOINT LeftFoot
				{
					OFFSET -4.081074 -37.707932 -15.979700
					CHANNELS 3 Xrotation Yrotation Zrotation
					JOINT LeftToeBase
					{
						OFFSET 5.346399 -15.068900 20.645000
						CHANNELS 3 Xrotation Yrotation Zrotation
						JOINT LeftToe_End
						{
							OFFSET 2.754700 0.931300 11.300900
							CHANNELS 3 Xrotation Yrotation Zrotation
							End Site
							{
								OFFSET 0 0 0
							}
						}
					}
				}
			}
		}
	}
	JOINT RightUpLeg_virtual
	{
		OFFSET 0.000000 0.000000 0.000000
		CHANNELS 3 Xrotation Yrotation Zrotation
		JOINT RightUpLeg
		{
			OFFSET -15.569500 -6.655098 0.678600
			CHANNELS 3 Xrotation Yrotation Zrotation
			JOINT RightLeg
			{
				OFFSET -4.081825 -39.591045 13.023800
				CHANNELS 3 Xrotation Yrotation Zrotation
				JOINT RightFoot
				{
					OFFSET 4.081824 -37.707954 -15.979600
					CHANNELS 3 Xrotation Yrotation Zrotation
					JOINT RightToeBase
					{
						OFFSET -5.346400 -15.068900 20.645000
						CHANNELS 3 Xrotation Yrotation Zrotation
						JOINT RightToe_End
						{
							OFFSET -2.754700 0.931300 11.300900
							CHANNELS 3 Xrotation Yrotation Zrotation
							End Site
							{
								OFFSET 0 0 0
							}
						}
					}
				}
			}
		}
	}
	JOINT Spine_virtual
	{
		OFFSET 0.000000 0.000000 0.000000
		CHANNELS 3 Xrotation Yrotation Zrotation
		JOINT Spine
		{
			OFFSET -0.279200 12.230698 -2.892100
			CHANNELS 3 Xrotation Yrotation Zrotation
			JOINT Spine1
			{
				OFFSET -0.232667 10.192268 -1.242267
				CHANNELS 3 Xrotation Yrotation Zrotation
				JOINT Spine1_split
				{
					OFFSET -0.232667 10.192268 -1.242267
					CHANNELS 3 Xrotation Yrotation Zrotation
					JOINT Spine2
					{
						OFFSET -0.232667 10.192268 -1.242267
						CHANNELS 3 Xrotation Yrotation Zrotation
						JOINT Neck_virtual
						{
							OFFSET 0.000000 0.000000 0.000000
							CHANNELS 3 Xrotation Yrotation Zrotation
							JOINT Neck
							{
								OFFSET -0.418800 17.814194 8.416900
								CHANNELS 3 Xrotation Yrotation Zrotation
								JOINT Head
								{
									OFFSET 0.000000 7.031097 3.806800
									CHANNELS 3 Xrotation Yrotation Zrotation
									JOINT HeadTop_End
									{
										OFFSET 0.000000 24.646606 12.978600
										CHANNELS 3 Xrotation Yrotation Zrotation
										End Site
										{
											OFFSET 0 0 0
										}
									}
								}
							}
						}
						JOINT LeftShoulder_virtual
						{
							OFFSET 0.000000 0.000000 0.000000
							CHANNELS 3 Xrotation Yrotation Zrotation
							JOINT LeftShoulder
							{
								OFFSET 8.476499 7.247704 -3.868750
								CHANNELS 3 Xrotation Yrotation Zrotation
								JOINT LeftShoulder_split
								{
									OFFSET 8.476499 7.247704 -3.868750
									CHANNELS 3 Xrotation Yrotation Zrotation
									JOINT LeftArm
									{
										OFFSET 9.308998 -2.777710 0.208600
										CHANNELS 3 Xrotation Yrotation Zrotation
										JOINT LeftForeArm
										{
											OFFSET 29.972298 0.000000 0.000000
											CHANNELS 3 Xrotation Yrotation Zrotation
											JOINT LeftHand
											{
												OFFSET 26.026505 0.000000 0.000000
												CHANNELS 3 Xrotation Yrotation Zrotation
												End Site
												{
													OFFSET 0 0 0
												}
											}
										}
									}
								}
							}
						}
						JOINT RightShoulder_virtual
						{
							OFFSET 0.000000 0.000000 0.000000
							CHANNELS 3 Xrotation Yrotation Zrotation
							JOINT RightShoulder
							{
								OFFSET -7.570500 7.247704 -3.868750
								CHANNELS 3 Xrotation Yrotation Zrotation
								JOINT RightShoulder_split
								{
									OFFSET -7.570500 7.247704 -3.868750
									CHANNELS 3 Xrotation Yrotation Zrotation
									JOINT RightArm
									{
										OFFSET -9.308998 -2.777710 0.208500
										CHANNELS 3 Xrotation Yrotation Zrotation
										JOINT RightForeArm
										{
											OFFSET -29.972300 0.000000 0.000000
											CHANNELS 3 Xrotation Yrotation Zrotation
											JOINT RightHand
											{
												OFFSET -26.026505 0.000000 0.000000
												CHANNELS 3 Xrotation Yrotation Zrotation
												End Site
												{
													OFFSET 0 0 0
												}
											}
										}
									}
								}
							}
						}
					}
				}
			}
		}
	}
}
MOTION
Frames: 6
Frame Time: 0.03333333
1.648576 83.162155 0.683525 0.000000 0.000000 0.000000 4.868900 -3.747437 -1.018726 -37.371885 4.582575 21.646195 52.619214 9.738111 -0.767390 13.314486 3.734210 -10.562809 -34.003974 1.666198 -6.921727 0.000000 0.000000 0.000000 4.201260 -3.845259 -0.880626 -25.198818 -9.072688 4.955654 34.984058 -3.713932 0.255875 -21.038526 -4.219146 -4.066181 8.468665 0.147230 0.012398 0.000000 0.000000 0.000000 5.109393 -5.491138 -0.743704 9.535121 3.624989 6.952055 6.549267 1.255450 0.900985 1.048166 -0.539708 0.246902 0.000000 0.000000 0.000000 7.225377 1.176890 0.867848 1.960888 -1.373255 -1.145069 -1.811753 -3.962660 -0.804023 0.000000 0.000000 0.000000 7.206277 1.191765 0.775153 2.426516 -7.906586 -12.995299 -1.115063 -1.875374 -1.334296 -24.142847 0.529263 -67.511652 -1.106092 -30.936526 -1.123761 0.000000 0.000000 0.000000 7.187921 1.057828 0.828186 3.822050 17.374912 6.530189 1.018080 3.445656 -2.259826 -12.061677 2.632640 67.322347 -0.262478 21.913837 0.088606 0.000000 0.000000 0.000000 
1.409387 83.358688 1.111839 0.000000 0.000000 0.000000 4.808552 -4.037706 -1.010266 -38.353353 5.180124 21.126841 51.207489 8.987702 -0.013724 13.708242 2.216512 -11.864979 -33.349205 1.649545 -6.593807 0.000000 0.000000 0.000000 4.405179 -4.198005 -0.781176 -24.799720 -8.418037 4.977212 36.006073 -3.637126 0.305098 -21.304393 -4.124011 -3.834710 8.558930 0.132468 -0.080779 0.000000 0.000000 0.000000 5.379635 -5.127271 -0.572260 9.332207 3.724704 7.084163 6.488666 1.300079 0.900122 0.829616 -0.423216 0.291578 0.000000 0.000000 0.000000 7.212638 1.211073 0.856692 2.148111 -1.429184 -1.260442 -1.779094 -4.195133 -0.743593 0.000000 0.000000 0.000000 7.174476 1.234659 0.758680 2.447566 -7.970147 -13.241378 -0.921816 -1.679946 -1.306680 -24.264143 0.551448 -67.925705 -0.982673 -31.385682 -1.047035 0.000000 0.000000 0.000000 7.181514 1.109250 0.824074 3.760858 17.534316 6.815185 0.823522 3.333235 -2.239628 -11.725339 2.144165 66.966392 -0.220267 21.447346 0.146842 0.000000 0.000000 0.000000 
1.144308 83.725143 1.730499 0.000000 0.000000 0.000000 4.646301 -4.368302 -0.430201 -38.367495 6.791499 19.068527 47.862213 8.417260 0.451980 11.681141 0.987787 -11.820970 -32.072878 0.954294 -4.588659 0.000000 0.000000 0.000000 4.468564 -4.598473 -0.192897 -24.296443 -7.032250 4.459028 37.109671 -3.667935 0.206779 -21.452323 -3.765859 -3.387879 8.239844 0.143737 -0.175552 0.000000 0.000000 0.000000 5.451696 -4.830183 0.064528 9.216259 3.860557 7.015571 6.355859 1.438537 0.856073 0.630231 -0.200857 0.262466 0.000000 0.000000 0.000000 7.095580 1.330115 0.820373 2.331150 -1.439848 -1.656973 -1.678892 -4.463010 -0.946454 0.000000 0.000000 0.000000 7.027107 1.354499 0.737509 2.429354 -7.947174 -13.506095 -0.801849 -1.239055 -1.262728 -23.839824 0.431959 -68.389236 -0.712925 -31.963028 -0.882682 0.000000 0.000000 0.000000 7.075996 1.235221 0.790950 3.670743 17.482728 7.137061 0.749384 3.273167 -2.320694 -11.170636 0.837293 66.362862 -0.161270 21.344538 0.251034 0.000000 0.000000 0.000000 
0.886520 84.144173 2.623222 0.000000 0.000000 0.000000 4.557749 -4.614908 0.645755 -38.069005 8.667859 16.101136 43.812716 8.196923 0.517320 8.482345 0.333146 -10.863919 -25.892129 0.431124 -3.352069 0.000000 0.000000 0.000000 4.583562 -5.008604 0.811886 -23.756535 -5.247316 3.363718 37.704478 -3.763319 -0.042614 -21.605302 -3.153000 -2.805525 7.928432 0.210967 -0.220049 0.000000 0.000000 0.000000 5.362418 -4.631990 1.037459 9.230330 3.980794 6.716513 6.170489 1.619823 0.804643 0.443492 -0.096774 0.193529 0.000000 0.000000 0.000000 6.893831 1.495166 0.784965 2.468587 -1.379408 -2.191027 -1.482977 -4.686671 -1.389238 0.000000 0.000000 0.000000 6.802985 1.504935 0.729991 2.388539 -7.797968 -13.724199 -0.757312 -0.587018 -1.187818 -22.889374 0.054192 -68.800762 -0.406129 -32.402452 -0.716459 0.000000 0.000000 0.000000 6.876479 1.390454 0.756127 3.583994 17.174808 7.464134 0.688076 3.195241 -2.307083 -10.482192 -0.994529 65.699460 -0.066021 21.595706 0.359275 0.000000 0.000000 0.000000 
0.662983 84.582115 3.741741 0.000000 0.000000 0.000000 4.594995 -4.642506 1.988039 -38.787251 10.181274 13.279367 40.004479 8.043001 0.113169 6.711259 -0.075628 -10.186416 -15.355507 0.331233 -3.534586 0.000000 0.000000 0.000000 4.880121 -5.349337 2.047076 -23.004439 -3.421489 1.922755 37.521668 -3.975708 -0.400558 -21.767227 -2.386251 -2.256775 8.123180 0.321068 -0.135233 0.000000 0.000000 0.000000 5.319020 -4.520071 2.125179 9.311672 4.057371 6.198629 5.979101 1.801377 0.772289 0.454118 -0.159356 0.093378 0.000000 0.000000 0.000000 6.631631 1.666127 0.769247 2.517256 -1.285559 -2.694327 -1.173386 -4.808657 -1.970791 0.000000 0.000000 0.000000 6.548916 1.648715 0.741637 2.338664 -7.514185 -13.848372 -0.915544 0.035773 -1.116871 -21.552684 -0.575645 -69.012136 -0.212573 -32.709718 -0.621496 0.000000 0.000000 0.000000 6.604900 1.557078 0.747604 3.523619 16.668173 7.815278 0.668347 3.200225 -2.259093 -9.815957 -3.142436 65.161589 0.073697 22.072028 0.434580 0.000000 0.000000 0.000000 
0.363403 84.971481 5.118572 0.000000 0.000000 0.000000 4.809081 -4.585421 3.366660 -39.480327 10.921720 10.661974 35.686468 7.863132 -0.307816 6.803360 -0.309457 -9.417274 -6.823551 0.134586 -3.145593 0.000000 0.000000 0.000000 5.253495 -5.391640 3.331306 -22.056489 -1.951680 0.353784 36.621794 -4.326228 -0.743763 -21.815815 -1.691525 -1.689870 8.700436 0.441642 0.079826 0.000000 0.000000 0.000000 5.367138 -4.286607 3.126708 9.408393 4.087911 5.478001 5.802297 1.941047 0.748297 0.607584 -0.402285 -0.011937 0.000000 0.000000 0.000000 6.353011 1.820973 0.756965 2.449611 -1.192634 -3.007973 -0.712559 -4.831970 -2.560633 0.000000 0.000000 0.000000 6.310904 1.769660 0.752527 2.289969 -7.145922 -13.860312 -1.026021 0.569382 -1.018170 -20.082266 -1.402519 -68.876618 -0.175409 -32.948996 -0.622929 0.000000 0.000000 0.000000 6.282209 1.723258 0.770441 3.486762 16.033509 8.212307 0.733942 3.293598 -2.250490 -9.224759 -5.280640 64.885923 0.258772 22.595466 0.448035 0.000000 0.000000 0.000000 
